# Blender v2.90.1 OBJ File: 'untitled.blend'
# www.blender.org
o Cube_Cube.002
v 0.450080 1.557220 0.012284
v 0.656658 3.235865 0.012284
v 0.450080 1.557220 -0.519588
v 0.656658 3.235865 -0.519588
v 0.785031 1.506982 0.012284
v 1.327348 3.067240 0.012284
v 0.764503 1.512143 -0.519588
v 1.327348 3.067240 -0.519588
v 0.925520 2.302976 -0.519588
v 0.925520 2.302976 0.012284
v 1.092878 2.693545 -0.519588
v 1.092878 2.693545 0.012284
v 1.047458 2.488641 -0.519588
v 1.047458 2.488641 0.012284
v 0.450080 1.557220 -0.253652
v 0.583319 2.389012 0.012284
v 0.656658 3.235865 -0.253652
v 0.583319 2.389012 -0.519588
v 0.583319 2.389012 -0.253652
v 0.450080 1.557220 -0.120684
v 0.685628 2.795936 0.012284
v 0.656658 3.235865 -0.386620
v 0.541099 1.966982 -0.519588
v 0.450080 1.557220 -0.386620
v 0.541099 1.966982 0.012284
v 0.656658 3.235865 -0.120684
v 0.685628 2.795936 -0.519588
v 0.583319 2.389012 -0.386620
v 0.583319 2.389012 -0.120684
v 0.541099 1.966982 -0.253652
v 0.685628 2.795936 -0.253652
v 0.685628 2.795936 -0.120684
v 0.541099 1.966982 -0.120684
v 0.541099 1.966982 -0.386620
v 0.685628 2.795936 -0.386620
v 0.450080 1.557220 -0.054200
v 0.424306 1.780023 -0.519588
v 0.450080 1.557220 -0.320136
v 0.424306 1.780023 -0.253652
v 0.450080 1.557220 -0.187168
v 0.450080 1.557220 -0.453104
v 0.424306 1.780023 0.012284
v 0.541099 1.966982 -0.187168
v 0.541099 1.966982 -0.054200
v 0.424306 1.780023 -0.120684
v 0.541099 1.966982 -0.453104
v 0.541099 1.966982 -0.320136
v 0.424306 1.780023 -0.386620
v 0.424306 1.780023 -0.320136
v 0.424306 1.780023 -0.453104
v 0.424306 1.780023 -0.054200
v 0.424306 1.780023 -0.187168
v 0.450080 1.557220 -0.020958
v 0.390095 1.680463 -0.519588
v 0.450080 1.557220 -0.286894
v 0.390095 1.680463 -0.253652
v 0.450080 1.557220 -0.153926
v 0.450080 1.557220 -0.419862
v 0.390095 1.680463 -0.120684
v 0.390095 1.680463 -0.386620
v 0.450080 1.557220 -0.087442
v 0.450080 1.557220 -0.353378
v 0.450080 1.557220 -0.220410
v 0.450080 1.557220 -0.486346
v 0.390095 1.680463 0.012284
v 0.424306 1.780023 -0.353378
v 0.424306 1.780023 -0.286894
v 0.390095 1.680463 -0.320136
v 0.424306 1.780023 -0.486346
v 0.424306 1.780023 -0.419862
v 0.390095 1.680463 -0.453104
v 0.424306 1.780023 -0.087442
v 0.424306 1.780023 -0.020958
v 0.390095 1.680463 -0.054200
v 0.424306 1.780023 -0.220410
v 0.424306 1.780023 -0.153926
v 0.390095 1.680463 -0.187168
v 0.390095 1.680463 -0.153926
v 0.390095 1.680463 -0.220410
v 0.390095 1.680463 -0.020958
v 0.390095 1.680463 -0.087442
v 0.390095 1.680463 -0.419862
v 0.390095 1.680463 -0.486346
v 0.390095 1.680463 -0.286894
v 0.390095 1.680463 -0.353378
v 1.327348 3.067240 -0.253652
v 1.328757 2.810379 -0.519588
v 1.328757 2.810379 0.012284
v 1.092878 2.693545 -0.253652
v 1.328757 2.810379 -0.253652
v 1.327348 3.067240 -0.120684
v 1.327348 3.067240 -0.386620
v 1.341756 2.915272 -0.519588
v 1.341756 2.915272 0.012284
v 1.328757 2.810379 -0.120684
v 1.328757 2.810379 -0.386620
v 1.341756 2.915272 -0.253652
v 1.341756 2.915272 -0.386620
v 1.341756 2.915272 -0.120684
v 1.210818 2.751962 -0.519588
v 1.210818 2.751962 0.012284
v 1.092878 2.693545 -0.120684
v 1.092878 2.693545 -0.386620
v 1.328757 2.810379 -0.054200
v 1.328757 2.810379 -0.320136
v 1.210818 2.751962 -0.253652
v 1.328757 2.810379 -0.187168
v 1.328757 2.810379 -0.453104
v 1.151848 2.722753 -0.519588
v 1.151848 2.722753 0.012284
v 1.092878 2.693545 -0.054200
v 1.092878 2.693545 -0.320136
v 1.328757 2.810379 -0.020958
v 1.328757 2.810379 -0.286894
v 1.151848 2.722753 -0.253652
v 1.328757 2.810379 -0.153926
v 1.328757 2.810379 -0.419862
v 1.269787 2.781170 -0.519588
v 1.269787 2.781170 0.012284
v 1.092878 2.693545 -0.187168
v 1.092878 2.693545 -0.453104
v 1.328757 2.810379 -0.087442
v 1.328757 2.810379 -0.353378
v 1.269787 2.781170 -0.253652
v 1.328757 2.810379 -0.220410
v 1.328757 2.810379 -0.486346
v 0.829724 1.894416 -0.519588
v 0.753296 1.514961 -0.253652
v 0.839797 1.891883 0.012284
v 0.925520 2.302976 -0.253652
v 0.813290 1.898547 -0.253652
v 0.855654 1.688561 -0.519588
v 0.758900 1.513552 -0.386620
v 0.870954 1.684714 0.012284
v 0.769163 1.510971 -0.120684
v 0.826543 1.895215 -0.120684
v 0.821507 1.896482 -0.386620
v 0.841833 1.692036 -0.253652
v 0.848744 1.690298 -0.386620
v 0.856394 1.688375 -0.120684
v 0.810079 1.600352 -0.519588
v 0.761702 1.512847 -0.453104
v 0.827993 1.595848 0.012284
v 0.761230 1.512966 -0.187168
v 0.797565 1.603498 -0.253652
v 0.756098 1.514256 -0.320136
v 0.777097 1.508977 -0.054200
v 0.845289 1.691167 -0.320136
v 0.852199 1.689430 -0.453104
v 0.803822 1.601925 -0.386620
v 0.863674 1.686545 -0.054200
v 0.849114 1.690205 -0.187168
v 0.812779 1.599673 -0.120684
v 0.805172 1.601586 -0.187168
v 0.820386 1.597761 -0.054200
v 0.806950 1.601139 -0.453104
v 0.800693 1.602712 -0.320136
v 1.412301 6.704727 -0.170969
v 1.089721 3.087650 -0.170969
v 1.412301 6.704727 -0.357839
v 1.089721 3.087650 -0.357839
v 1.109473 7.610805 -0.170969
v 0.696907 3.153859 -0.170969
v 1.109491 7.615049 -0.357839
v 0.696907 3.153859 -0.357839
v 1.448398 4.896189 -0.170969
v 1.448398 4.896189 -0.357839
v 1.501560 5.800458 -0.357839
v 1.501560 5.800458 -0.170969
v 1.040999 5.545596 -0.357839
v 1.040999 5.545596 -0.170969
v 0.960122 4.349728 -0.357839
v 0.960122 4.349728 -0.170969
v 1.620921 6.704727 -0.264404
v 1.269060 3.991919 -0.170969
v 1.298340 3.087650 -0.264404
v 1.456931 6.252593 -0.357839
v 1.229028 7.321031 -0.357839
v 1.254374 7.937334 -0.264404
v 1.229028 7.321031 -0.170969
v 1.474979 5.348323 -0.170969
v 1.269060 3.991919 -0.357839
v 1.657018 4.896188 -0.264404
v 1.474979 5.348323 -0.357839
v 1.456931 6.252593 -0.170969
v 1.710180 5.800458 -0.264404
v 1.665550 6.252592 -0.264404
v 1.683599 5.348323 -0.264404
v 1.437647 7.321031 -0.264404
v 1.477679 3.991919 -0.264404
v 1.043376 6.741466 -0.357839
v 1.192166 7.835280 -0.311122
v 1.043394 6.750334 -0.170969
v 1.040999 5.545596 -0.264404
v 1.192166 7.835280 -0.217687
v 1.109473 7.606181 -0.170969
v 1.043394 6.750334 -0.170969
vt 0.007921 0.181730
vt 0.089840 0.242489
vt 0.048372 0.274035
vt 0.083111 0.518820
vt 0.070073 0.455006
vt 0.051556 0.657360
vt 0.055600 0.624571
vt 0.060887 0.671873
vt 0.054057 0.615761
vt 0.051113 0.622589
vt 0.375000 0.656250
vt 0.375000 0.593750
vt 0.375000 0.625000
vt 0.000353 0.344502
vt 0.000030 0.368741
vt 0.055456 0.494344
vt 0.057965 0.465351
vt 0.060465 0.471034
vt 0.070348 0.614541
vt 0.063292 0.588828
vt 0.061756 0.539941
vt 0.066355 0.485247
vt 0.077270 0.324448
vt 0.062670 0.372390
vt 0.062273 0.365336
vt 0.041738 0.351546
vt 0.053237 0.376978
vt 0.051729 0.384994
vt 0.029203 0.320778
vt 0.019807 0.363643
vt 0.034085 0.380178
vt 0.012038 0.405075
vt 0.030379 0.410511
vt 0.056976 0.389242
vt 0.056680 0.391852
vt 0.049284 0.395414
vt 0.055714 0.402007
vt 0.056019 0.405398
vt 0.049475 0.406407
vt 0.058401 0.377588
vt 0.058607 0.376713
vt 0.059180 0.365872
vt 0.059187 0.378566
vt 0.059019 0.380088
vt 0.055624 0.328804
vt 0.057023 0.369391
vt 0.000274 0.286863
vt 0.059617 0.382096
vt 0.059664 0.384301
vt 0.057999 0.385789
vt 0.059376 0.387295
vt 0.058815 0.390636
vt 0.058396 0.383052
vt 0.058002 0.379487
vt 0.058302 0.379382
vt 0.059397 0.377062
vt 0.058878 0.379694
vt 0.059361 0.380512
vt 0.059178 0.376827
vt 0.057547 0.404204
vt 0.057687 0.407279
vt 0.056431 0.412732
vt 0.057707 0.410452
vt 0.057727 0.413341
vt 0.055843 0.409242
vt 0.057964 0.394016
vt 0.057576 0.396302
vt 0.056175 0.398362
vt 0.057425 0.398685
vt 0.057507 0.401271
vt 0.056098 0.395281
vt 0.058472 0.407995
vt 0.059476 0.408594
vt 0.060232 0.410255
vt 0.056768 0.412290
vt 0.057429 0.408994
vt 0.060880 0.415256
vt 0.060875 0.418204
vt 0.057440 0.415462
vt 0.061107 0.420855
vt 0.056050 0.415640
vt 0.060694 0.412568
vt 0.057915 0.386600
vt 0.059236 0.387970
vt 0.060262 0.390221
vt 0.053746 0.385257
vt 0.056172 0.386001
vt 0.060914 0.398216
vt 0.059789 0.404408
vt 0.060910 0.393555
vt 0.058174 0.630616
vt 0.056093 0.624397
vt 0.071876 0.759886
vt 0.078677 0.834169
vt 0.068168 0.631862
vt 0.066199 0.663106
vt 0.050894 0.790526
vt 0.065012 0.697239
vt 0.065631 0.653622
vt 0.068571 0.634377
vt 0.071382 0.624504
vt 0.076459 0.620288
vt 0.060421 0.642752
vt 0.061731 0.658331
vt 0.060231 0.742219
vt 0.067583 0.790977
vt 0.053614 0.703735
vt 0.059584 0.459046
vt 0.060796 0.460224
vt 0.060846 0.468587
vt 0.056850 0.464102
vt 0.054480 0.456871
vt 0.061236 0.454598
vt 0.050575 0.455553
vt 0.054750 0.464795
vt 0.057164 0.434501
vt 0.055808 0.447179
vt 0.053693 0.443075
vt 0.057398 0.439058
vt 0.060647 0.456640
vt 0.061351 0.455122
vt 0.060176 0.465647
vt 0.062281 0.458870
vt 0.060998 0.465285
vt 0.061171 0.462783
vt 0.057724 0.428281
vt 0.064008 0.454368
vt 0.061824 0.448565
vt 0.063105 0.466932
vt 0.052085 0.467867
vt 0.062786 0.454471
vt 0.051445 0.437932
vt 0.055956 0.429116
vt 0.057809 0.431793
vt 0.044663 0.455187
vt 0.375000 0.562500
vt 0.375000 0.687500
vt 0.562500 0.125000
vt 0.625000 0.250000
vt 0.562500 0.250000
vt 0.375000 0.500000
vt 0.375000 0.375000
vt 0.437500 0.500000
vt 0.625000 0.500000
vt 0.562500 0.750000
vt 0.562500 0.500000
vt 0.625000 0.750000
vt 0.562500 1.000000
vt 0.375000 0.687500
vt 0.375000 0.750000
vt 0.250000 0.750000
vt 0.875000 0.500000
vt 0.875000 0.750000
vt 0.468750 0.125000
vt 0.500000 0.250000
vt 0.468750 0.250000
vt 0.406250 0.125000
vt 0.437500 0.250000
vt 0.406250 0.250000
vt 0.500000 0.625000
vt 0.437500 0.750000
vt 0.500000 0.750000
vt 0.375000 0.125000
vt 0.375000 0.250000
vt 0.406250 0.000000
vt 0.375000 0.000000
vt 0.437500 0.000000
vt 0.437500 0.125000
vt 0.468750 0.000000
vt 0.500000 0.000000
vt 0.250000 0.625000
vt 0.125000 0.750000
vt 0.125000 0.625000
vt 0.125000 0.500000
vt 0.375000 0.625000
vt 0.250000 0.500000
vt 0.375000 0.562500
vt 0.500000 0.125000
vt 0.562500 0.000000
vt 0.625000 0.000000
vt 0.037119 0.000030
vt 0.062533 0.434846
vt 0.074988 0.611650
vt 0.071387 0.624654
vt 0.083253 0.591785
vt 0.088023 0.558381
vt 0.058659 0.434053
vt 0.069019 0.505048
vt 0.047984 0.555189
vt 0.049892 0.420221
vt 0.045947 0.581327
vt 0.049287 0.602617
vt 0.070345 0.629689
vt 0.069928 0.570575
vt 0.066291 0.606868
vt 0.072628 0.635401
vt 0.071818 0.670159
vt 0.073453 0.728454
vt 0.089840 0.801598
vt 0.071946 0.851451
vt 0.061308 0.703059
vt 0.064932 0.677281
vt 0.061307 0.712651
vt 0.064483 0.679630
vt 0.079740 0.999970
vt 0.625000 0.125000
vt 0.500000 0.500000
vt 0.375000 0.875000
vt 0.375000 1.000000
vt 0.406250 1.000000
vt 0.468750 1.000000
vt 0.437500 1.000000
vt 0.500000 1.000000
vt 0.625000 1.000000
vt 0.875000 0.625000
vn -0.9978 -0.0657 0.0000
vn 0.0000 0.0000 -1.0000
vn 0.9955 0.0944 0.0000
vn -0.0000 0.0000 1.0000
vn 0.2438 0.9698 -0.0000
vn 0.9738 -0.2031 -0.1022
vn 0.9763 -0.2164 0.0000
vn 0.8359 -0.5490 0.0000
vn -0.9950 0.0995 0.0000
vn -0.9698 0.2438 0.0000
vn -0.8481 0.5298 0.0000
vn -0.9457 0.3250 0.0000
vn -0.8992 -0.4376 0.0000
vn -0.8991 -0.4376 0.0000
vn 0.4439 -0.8961 0.0000
vn 0.9924 -0.1230 0.0000
vn 0.9836 0.1479 -0.1036
vn 0.9894 0.1367 0.0496
vn 0.9616 -0.2669 0.0636
vn 0.8934 -0.4467 0.0473
vn 0.8904 -0.4526 0.0473
vn 0.9902 0.1308 0.0497
vn 0.8929 -0.4354 -0.1147
vn 0.8900 -0.4413 -0.1145
vn 0.9844 0.1421 -0.1039
vn -0.1459 -0.9893 0.0000
vn 0.8895 -0.4411 -0.1194
vn 0.8880 -0.4440 -0.1193
vn 0.8886 -0.4443 -0.1144
vn 0.8924 -0.4351 -0.1195
vn 0.8910 -0.4381 -0.1195
vn 0.8915 -0.4383 -0.1146
vn 0.8906 -0.4527 0.0423
vn 0.8891 -0.4557 0.0423
vn 0.8889 -0.4556 0.0472
vn 0.8936 -0.4468 0.0424
vn 0.8921 -0.4498 0.0424
vn 0.8919 -0.4497 0.0473
vn 0.4074 -0.0808 -0.9097
vn -0.9766 0.2150 0.0000
vn 0.2561 0.1056 0.9609
vn -0.1662 -0.9861 0.0000
vn 0.4086 -0.0240 -0.9124
vn 0.4084 0.0403 -0.9119
vn -1.0000 0.0020 0.0000
vn -0.9977 0.0675 0.0000
vn 0.4084 0.0403 0.9119
vn 0.4086 -0.0240 0.9124
vn 0.4058 0.1207 0.9060
vn 0.4058 0.1207 -0.9060
vn 0.4712 0.1132 -0.8748
vn 0.4074 -0.0808 0.9097
vn 0.9585 -0.2660 -0.1022
vn 0.9718 -0.2359 0.0000
vn 0.9849 0.1451 -0.0945
vn 0.9893 0.1337 0.0591
vn 0.9716 -0.2278 0.0636
vn 0.9688 -0.2479 0.0000
vn 0.8917 -0.4496 0.0522
vn 0.8887 -0.4555 0.0521
vn 0.9909 0.1248 0.0499
vn 0.9900 0.1278 0.0592
vn 0.8949 -0.4326 -0.1099
vn 0.8920 -0.4386 -0.1097
vn 0.9852 0.1362 -0.1041
vn 0.9857 0.1393 -0.0948
vn -0.1419 -0.9899 0.0000
vn -0.1414 -0.9899 0.0045
vn -0.1410 -0.9900 0.0000
vn -0.1435 -0.9896 -0.0041
vn -0.1471 -0.9890 -0.0121
vn -0.1483 -0.9889 0.0000
vn 0.8905 -0.4416 -0.1097
vn 0.8944 -0.4324 -0.1148
vn 0.8934 -0.4356 -0.1098
vn 0.8874 -0.4585 0.0472
vn 0.8872 -0.4584 0.0521
vn 0.8902 -0.4525 0.0522
vn 0.4712 0.1132 0.8748
vn 0.0000 -1.0000 0.0000
vn -0.9367 0.3500 0.0079
vn -0.9971 0.0755 -0.0035
vn -0.9971 0.0766 0.0016
vn -0.9384 0.3457 0.0000
vn -0.8539 0.5205 0.0000
vn 0.2603 0.1058 -0.9597
s off
f 22/1/1 27/2/1 35/3/1
f 27/2/2 11/4/2 9/5/2
f 91/6/3 94/7/3 99/8/3
f 119/9/4 94/7/4 6/10/4
f 144/11/5 146/12/5 128/13/5
f 26/14/5 2/15/5 6/10/5
f 10/16/6 129/17/6 136/18/6
f 102/19/7 111/20/7 14/21/7
f 14/21/8 10/16/8 130/22/8
f 18/23/9 23/24/9 46/25/9
f 19/26/9 30/27/9 43/28/9
f 26/14/1 31/29/1 32/30/1
f 32/30/10 19/26/10 29/31/10
f 21/32/10 29/31/10 16/33/10
f 2/15/1 32/30/1 21/32/1
f 30/27/11 39/34/11 75/35/11
f 33/36/11 45/37/11 72/38/11
f 29/31/9 33/36/9 44/39/9
f 23/24/11 37/40/11 69/41/11
f 34/42/11 48/43/11 66/44/11
f 28/45/9 34/42/9 47/46/9
f 35/3/10 18/23/10 28/45/10
f 31/29/10 28/45/10 19/26/10
f 17/47/1 35/3/1 31/29/1
f 66/44/12 60/48/12 85/49/12
f 67/50/12 68/51/12 84/52/12
f 47/46/11 49/53/11 67/50/11
f 69/41/12 54/54/12 83/55/12
f 70/56/12 71/57/12 82/58/12
f 46/25/11 50/59/11 70/56/11
f 72/38/12 59/60/12 81/61/12
f 73/62/12 74/63/12 80/64/12
f 44/39/11 51/65/11 73/62/11
f 75/35/12 56/66/12 79/67/12
f 76/68/12 77/69/12 78/70/12
f 43/28/11 52/71/11 76/68/11
f 78/70/13 40/72/13 57/73/13
f 59/60/14 57/73/14 20/74/14
f 45/37/12 78/70/12 59/60/12
f 79/67/13 15/75/13 63/76/13
f 77/69/13 63/76/13 40/72/13
f 52/71/12 79/67/12 77/69/12
f 80/64/14 36/77/14 53/78/14
f 65/79/14 53/78/14 1/80/14
f 42/81/12 80/64/12 65/79/12
f 81/61/14 20/74/14 61/82/14
f 74/63/14 61/82/14 36/77/14
f 51/65/12 81/61/12 74/63/12
f 82/58/13 41/83/13 58/84/13
f 60/48/14 58/84/14 24/85/14
f 48/43/12 82/58/12 60/48/12
f 83/55/13 3/86/13 64/87/13
f 71/57/14 64/87/14 41/83/14
f 50/59/12 83/55/12 71/57/12
f 84/52/14 38/88/14 55/89/14
f 56/66/14 55/89/14 15/75/14
f 39/34/12 84/52/12 56/66/12
f 85/49/13 24/85/13 62/90/13
f 68/51/14 62/90/14 38/88/14
f 49/53/12 85/49/12 68/51/12
f 113/91/15 88/92/15 119/9/15
f 123/93/15 105/94/15 112/95/15
f 92/96/3 97/97/3 98/98/3
f 105/94/16 123/93/16 98/98/16
f 108/99/16 126/100/16 93/101/16
f 8/102/3 98/98/3 93/101/3
f 104/103/16 122/104/16 99/8/16
f 107/105/16 125/106/16 97/97/16
f 86/107/3 99/8/3 97/97/3
f 129/17/17 134/108/17 151/109/17
f 131/110/18 138/111/18 148/112/18
f 130/22/19 131/110/19 137/113/19
f 157/114/20 138/111/20 145/115/20
f 156/116/21 139/117/21 150/118/21
f 137/113/22 139/117/22 149/119/22
f 151/109/23 143/120/23 155/121/23
f 152/122/24 153/123/24 154/124/24
f 136/18/25 140/125/25 152/122/25
f 142/126/5 135/127/5 147/128/5
f 57/73/26 40/72/26 147/128/26
f 154/124/27 135/127/27 144/129/27
f 145/115/28 144/129/28 128/130/28
f 138/111/29 154/124/29 145/115/29
f 155/121/30 5/131/30 147/128/30
f 153/123/31 147/128/31 135/127/31
f 140/125/32 155/121/32 153/123/32
f 142/126/33 150/118/33 133/132/33
f 7/133/34 156/116/34 142/126/34
f 141/134/35 149/119/35 156/116/35
f 146/135/36 145/115/36 128/130/36
f 133/132/37 157/114/37 146/135/37
f 150/118/38 148/112/38 157/114/38
f 133/136/5 144/11/5 135/137/5
f 190/138/39 161/139/39 182/140/39
f 164/141/2 178/142/2 191/143/2
f 165/144/40 173/145/40 172/146/40
f 173/145/4 163/147/4 175/148/4
f 195/149/41 162/150/41 180/151/41
f 161/152/42 159/153/42 163/147/42
f 188/154/43 167/155/43 184/156/43
f 187/157/44 168/158/44 177/159/44
f 191/143/45 194/160/45 193/161/45
f 173/145/46 171/162/46 194/160/46
f 174/163/44 177/159/44 160/164/44
f 185/165/47 174/163/47 158/166/47
f 169/167/47 187/157/47 185/165/47
f 186/168/43 184/156/43 168/158/43
f 181/169/48 186/168/48 169/167/48
f 166/170/48 188/154/48 181/169/48
f 189/171/49 158/172/49 174/173/49
f 160/174/50 189/171/50 174/173/50
f 179/175/51 178/176/51 192/177/51
f 183/178/39 182/140/39 167/155/39
f 175/179/52 183/178/52 166/170/52
f 159/180/52 190/138/52 175/179/52
f 22/1/1 4/181/1 27/2/1
f 7/133/2 3/86/2 127/182/2
f 3/86/2 54/54/2 37/40/2
f 23/24/2 3/86/2 37/40/2
f 23/24/2 18/23/2 9/5/2
f 18/23/2 27/2/2 9/5/2
f 27/2/2 4/181/2 11/4/2
f 4/181/2 8/102/2 11/4/2
f 8/102/2 93/101/2 118/183/2
f 93/101/2 87/184/2 118/183/2
f 118/183/2 100/185/2 8/102/2
f 100/185/2 109/186/2 8/102/2
f 3/86/2 23/24/2 127/182/2
f 127/182/2 132/187/2 141/134/2
f 141/134/2 7/133/2 127/182/2
f 11/4/2 13/188/2 9/5/2
f 8/102/2 109/186/2 11/4/2
f 9/5/2 127/182/2 23/24/2
f 91/6/3 6/10/3 94/7/3
f 1/80/4 5/131/4 129/17/4
f 5/131/4 143/120/4 129/17/4
f 143/120/4 134/108/4 129/17/4
f 10/16/4 14/21/4 12/189/4
f 1/80/4 129/17/4 25/190/4
f 129/17/4 10/16/4 25/190/4
f 42/81/4 65/79/4 1/80/4
f 21/32/4 16/33/4 10/16/4
f 16/33/4 25/190/4 10/16/4
f 25/190/4 42/81/4 1/80/4
f 10/16/4 12/189/4 21/32/4
f 12/189/4 110/191/4 6/10/4
f 110/191/4 101/192/4 6/10/4
f 119/9/4 88/92/4 94/7/4
f 101/192/4 119/9/4 6/10/4
f 6/10/4 2/15/4 12/189/4
f 2/15/4 21/32/4 12/189/4
f 92/96/5 8/102/5 4/181/5
f 22/1/5 17/47/5 86/107/5
f 17/47/5 26/14/5 86/107/5
f 92/96/5 4/181/5 22/1/5
f 6/10/5 91/6/5 26/14/5
f 91/6/5 86/107/5 26/14/5
f 86/107/5 92/96/5 22/1/5
f 136/18/53 131/110/53 130/22/53
f 130/22/54 10/16/54 136/18/54
f 14/21/7 13/188/7 89/193/7
f 13/188/7 11/4/7 121/194/7
f 121/194/7 103/195/7 13/188/7
f 103/195/7 112/95/7 13/188/7
f 13/188/7 112/95/7 89/193/7
f 111/20/7 12/189/7 14/21/7
f 89/193/7 120/196/7 14/21/7
f 120/196/7 102/19/7 14/21/7
f 130/22/8 9/5/8 13/188/8
f 13/188/8 14/21/8 130/22/8
f 46/25/9 34/42/9 28/45/9
f 28/45/9 18/23/9 46/25/9
f 43/28/9 33/36/9 29/31/9
f 29/31/9 19/26/9 43/28/9
f 26/14/1 17/47/1 31/29/1
f 32/30/10 31/29/10 19/26/10
f 21/32/10 32/30/10 29/31/10
f 2/15/1 26/14/1 32/30/1
f 75/35/11 52/71/11 43/28/11
f 43/28/11 30/27/11 75/35/11
f 72/38/11 51/65/11 44/39/11
f 44/39/11 33/36/11 72/38/11
f 44/39/9 25/190/9 16/33/9
f 16/33/9 29/31/9 44/39/9
f 69/41/11 50/59/11 46/25/11
f 46/25/11 23/24/11 69/41/11
f 66/44/11 49/53/11 47/46/11
f 47/46/11 34/42/11 66/44/11
f 47/46/9 30/27/9 19/26/9
f 19/26/9 28/45/9 47/46/9
f 35/3/10 27/2/10 18/23/10
f 31/29/10 35/3/10 28/45/10
f 17/47/1 22/1/1 35/3/1
f 66/44/12 48/43/12 60/48/12
f 67/50/12 49/53/12 68/51/12
f 67/50/11 39/34/11 30/27/11
f 30/27/11 47/46/11 67/50/11
f 69/41/12 37/40/12 54/54/12
f 70/56/12 50/59/12 71/57/12
f 70/56/11 48/43/11 34/42/11
f 34/42/11 46/25/11 70/56/11
f 72/38/12 45/37/12 59/60/12
f 73/62/12 51/65/12 74/63/12
f 73/62/11 42/81/11 25/190/11
f 25/190/11 44/39/11 73/62/11
f 75/35/12 39/34/12 56/66/12
f 76/68/12 52/71/12 77/69/12
f 76/68/11 45/37/11 33/36/11
f 33/36/11 43/28/11 76/68/11
f 78/70/13 77/69/13 40/72/13
f 59/60/13 78/70/13 57/73/13
f 45/37/12 76/68/12 78/70/12
f 79/67/13 56/66/13 15/75/13
f 77/69/13 79/67/13 63/76/13
f 52/71/12 75/35/12 79/67/12
f 80/64/13 74/63/13 36/77/13
f 65/79/13 80/64/13 53/78/13
f 42/81/12 73/62/12 80/64/12
f 81/61/13 59/60/13 20/74/13
f 74/63/13 81/61/13 61/82/13
f 51/65/12 72/38/12 81/61/12
f 82/58/14 71/57/14 41/83/14
f 60/48/13 82/58/13 58/84/13
f 48/43/12 70/56/12 82/58/12
f 83/55/13 54/54/13 3/86/13
f 71/57/13 83/55/13 64/87/13
f 50/59/12 69/41/12 83/55/12
f 84/52/13 68/51/13 38/88/13
f 56/66/13 84/52/13 55/89/13
f 39/34/12 67/50/12 84/52/12
f 85/49/13 60/48/13 24/85/13
f 68/51/13 85/49/13 62/90/13
f 49/53/12 66/44/12 85/49/12
f 120/196/15 89/193/15 115/197/15
f 115/197/15 106/198/15 120/196/15
f 106/198/15 124/199/15 107/105/15
f 120/196/15 106/198/15 107/105/15
f 124/199/15 90/200/15 125/106/15
f 107/105/15 116/201/15 120/196/15
f 116/201/15 95/202/15 102/19/15
f 124/199/15 125/106/15 107/105/15
f 12/189/15 111/20/15 110/191/15
f 111/20/15 102/19/15 122/104/15
f 111/20/15 122/104/15 104/103/15
f 102/19/15 120/196/15 116/201/15
f 104/103/15 113/91/15 119/9/15
f 122/104/15 102/19/15 95/202/15
f 110/191/15 111/20/15 101/192/15
f 119/9/15 101/192/15 104/103/15
f 101/192/15 111/20/15 104/103/15
f 121/194/15 11/4/15 109/186/15
f 100/185/15 118/183/15 108/99/15
f 118/183/15 87/184/15 126/100/15
f 121/194/15 109/186/15 100/185/15
f 89/193/15 112/95/15 115/197/15
f 112/95/15 103/195/15 123/93/15
f 123/93/15 103/195/15 96/203/15
f 103/195/15 121/194/15 117/204/15
f 121/194/15 100/185/15 108/99/15
f 117/204/15 121/194/15 108/99/15
f 118/183/15 126/100/15 108/99/15
f 117/204/15 96/203/15 103/195/15
f 115/197/15 112/95/15 106/198/15
f 106/198/15 112/95/15 105/94/15
f 90/200/15 124/199/15 114/205/15
f 124/199/15 106/198/15 105/94/15
f 114/205/15 124/199/15 105/94/15
f 92/96/3 86/107/3 97/97/3
f 123/93/16 96/203/16 98/98/16
f 98/98/16 97/97/16 105/94/16
f 97/97/16 90/200/16 114/205/16
f 114/205/16 105/94/16 97/97/16
f 126/100/16 87/184/16 93/101/16
f 93/101/16 98/98/16 108/99/16
f 98/98/16 96/203/16 117/204/16
f 117/204/16 108/99/16 98/98/16
f 8/102/3 92/96/3 98/98/3
f 122/104/16 95/202/16 99/8/16
f 99/8/16 94/7/16 104/103/16
f 94/7/16 88/92/16 113/91/16
f 113/91/16 104/103/16 94/7/16
f 125/106/16 90/200/16 97/97/16
f 97/97/16 99/8/16 107/105/16
f 99/8/16 95/202/16 116/201/16
f 116/201/16 107/105/16 99/8/16
f 86/107/3 91/6/3 99/8/3
f 151/109/25 140/125/25 136/18/25
f 136/18/55 129/17/55 151/109/55
f 148/112/22 139/117/22 137/113/22
f 137/113/56 131/110/56 148/112/56
f 137/113/57 127/182/57 9/5/57
f 9/5/58 130/22/58 137/113/58
f 157/114/59 148/112/59 138/111/59
f 156/116/60 149/119/60 139/117/60
f 149/119/61 132/187/61 127/182/61
f 127/182/62 137/113/62 149/119/62
f 151/109/63 134/108/63 143/120/63
f 152/122/64 140/125/64 153/123/64
f 152/122/65 138/111/65 131/110/65
f 131/110/66 136/18/66 152/122/66
f 142/126/5 133/132/5 135/127/5
f 64/87/67 3/86/67 7/133/67
f 64/87/68 7/133/68 142/126/68
f 58/84/69 41/83/69 142/126/69
f 41/83/69 64/87/69 142/126/69
f 38/88/69 62/90/69 142/126/69
f 62/90/69 24/85/69 142/126/69
f 24/85/69 58/84/69 142/126/69
f 63/76/26 15/75/26 147/128/26
f 15/75/69 55/89/69 142/126/69
f 147/128/70 15/75/70 142/126/70
f 55/89/69 38/88/69 142/126/69
f 147/128/71 5/131/71 53/78/71
f 5/131/72 1/80/72 53/78/72
f 53/78/26 36/77/26 147/128/26
f 40/72/26 63/76/26 147/128/26
f 36/77/26 61/82/26 147/128/26
f 61/82/26 20/74/26 147/128/26
f 20/74/26 57/73/26 147/128/26
f 154/124/32 153/123/32 135/127/32
f 145/115/24 154/124/24 144/129/24
f 138/111/73 152/122/73 154/124/73
f 155/121/74 143/120/74 5/131/74
f 153/123/23 155/121/23 147/128/23
f 140/125/75 151/109/75 155/121/75
f 142/126/35 156/116/35 150/118/35
f 7/133/76 141/134/76 156/116/76
f 141/134/77 132/187/77 149/119/77
f 146/135/38 157/114/38 145/115/38
f 133/132/21 150/118/21 157/114/21
f 150/118/78 139/117/78 148/112/78
f 133/136/5 146/12/5 144/11/5
f 190/138/39 176/206/39 161/139/39
f 178/142/2 160/164/2 191/143/2
f 160/164/2 177/159/2 170/207/2
f 191/143/2 160/164/2 170/207/2
f 177/159/2 168/158/2 170/207/2
f 168/158/2 184/156/2 170/207/2
f 184/156/2 167/155/2 172/146/2
f 167/155/2 182/140/2 172/146/2
f 182/140/2 161/139/2 165/144/2
f 182/140/2 165/144/2 172/146/2
f 170/207/2 184/156/2 172/146/2
f 165/144/40 163/147/40 173/145/40
f 180/208/4 162/150/4 193/161/4
f 180/208/4 193/161/4 158/209/4
f 193/161/4 171/162/4 158/209/4
f 158/209/4 171/162/4 185/210/4
f 181/211/4 169/212/4 171/162/4
f 169/212/4 185/210/4 171/162/4
f 175/148/4 166/213/4 173/145/4
f 166/213/4 181/211/4 173/145/4
f 163/147/4 159/214/4 175/148/4
f 171/162/4 173/145/4 181/211/4
f 180/151/49 189/171/49 179/175/49
f 179/175/79 195/149/79 180/151/79
f 163/147/42 165/144/42 161/152/42
f 161/152/80 176/215/80 159/153/80
f 188/154/43 183/178/43 167/155/43
f 187/157/44 186/168/44 168/158/44
f 192/177/81 164/141/81 162/150/81
f 164/141/82 191/143/82 193/161/82
f 191/143/45 170/207/45 194/160/45
f 194/160/45 171/162/45 193/161/45
f 193/161/83 162/150/83 164/141/83
f 162/150/84 195/149/84 192/177/84
f 195/149/85 179/175/85 192/177/85
f 194/160/46 170/207/46 172/146/46
f 172/146/46 173/145/46 194/160/46
f 174/163/44 187/157/44 177/159/44
f 185/165/47 187/157/47 174/163/47
f 169/167/47 186/168/47 187/157/47
f 186/168/43 188/154/43 184/156/43
f 181/169/48 188/154/48 186/168/48
f 166/170/48 183/178/48 188/154/48
f 189/171/49 180/151/49 158/172/49
f 160/174/50 178/176/50 189/171/50
f 189/171/50 178/176/50 179/175/50
f 178/176/86 164/141/86 192/177/86
f 183/178/39 190/138/39 182/140/39
f 175/179/52 190/138/52 183/178/52
f 159/180/52 176/206/52 190/138/52
l 197 196
